<svg width="400" height="400" viewBox="0 0 400 400" fill="none" xmlns="http://www.w3.org/2000/svg">
<path d="M158.848 30.9739H0.00146484V302.759H158.848V30.9739Z" fill="#EBEBEB"/>
<path d="M146.928 44.5056H11.9304V218.207H146.928V44.5056Z" fill="white"/>
<path d="M19.3023 330.104H10.0967V302.759H26.4743L19.3023 330.104Z" fill="#EBEBEB"/>
<path d="M26.4743 302.75L23.8325 312.836H10.0967V302.75H26.4743Z" fill="#C7C7C7"/>
<path d="M139.556 330.104H148.761V302.759H132.384L139.556 330.104Z" fill="#EBEBEB"/>
<path d="M132.384 302.75L135.035 312.836H148.761V302.75H132.384Z" fill="#C7C7C7"/>
<path d="M146.928 229.37C136.639 229.538 126.35 229.648 116.061 229.698C105.784 229.801 95.5075 229.782 85.1943 229.819L85.6301 229.37C85.6301 233.855 85.6301 238.341 85.6301 242.827L85.6119 256.274C85.5211 265.245 85.4394 274.216 85.2397 283.188C85.0309 274.216 84.9492 265.245 84.8584 256.274V242.827C84.8584 238.341 84.8584 233.855 84.8584 229.37V228.902H85.2942C95.571 228.902 105.848 228.902 116.161 229.023C126.474 229.145 136.651 229.201 146.928 229.37Z" fill="#C7C7C7"/>
<path d="M85.2666 290.866C95.5556 290.698 105.845 290.585 116.133 290.529C126.41 290.426 136.687 290.454 147 290.417L146.565 290.866C146.565 286.465 146.565 282.073 146.565 277.672L146.619 264.468C146.701 255.674 146.783 246.872 146.982 238.079C147.191 246.872 147.273 255.674 147.354 264.468L147.409 277.672C147.409 282.073 147.454 286.465 147.409 290.866V291.325H146.973C136.696 291.278 126.419 291.325 116.106 291.203C105.793 291.082 95.5435 291.044 85.2666 290.866Z" fill="#C7C7C7"/>
<path d="M91.0771 266.94H94.999V251.414H91.0771V266.94Z" fill="#C7C7C7"/>
<path d="M11.9304 229.37C22.2194 229.201 32.5083 229.092 42.7973 229.042C53.0742 228.939 63.351 228.958 73.6642 228.92H74.1V229.37C74.1 233.855 74.1 238.341 74.1 242.826V256.274C74.0092 265.245 73.9275 274.216 73.7187 283.187C73.519 274.216 73.4372 265.245 73.3465 256.274V242.826C73.3465 238.341 73.3465 233.855 73.3465 229.37L73.7822 229.819C63.5054 229.819 53.2285 229.819 42.9153 229.697C32.6022 229.576 22.2073 229.538 11.9304 229.37Z" fill="#C7C7C7"/>
<path d="M73.5917 290.866C63.3148 291.044 53.038 291.138 42.7248 291.203C32.4116 291.269 22.1711 291.278 11.8579 291.325H11.4221V290.866C11.4221 286.465 11.4221 282.073 11.4221 277.672L11.4766 264.468C11.5583 255.674 11.64 246.872 11.8488 238.079C12.0485 246.872 12.1302 255.674 12.212 264.468L12.2664 277.672C12.2664 282.073 12.3118 286.465 12.2664 290.866L11.8307 290.417C22.1075 290.417 32.3844 290.417 42.6976 290.529C53.0107 290.641 63.3148 290.707 73.5917 290.866Z" fill="#C7C7C7"/>
<path d="M67.7815 251.404H63.8596V266.931H67.7815V251.404Z" fill="#C7C7C7"/>
<path d="M146.928 40.3103H11.9304V44.5056H146.928V40.3103Z" fill="#EBEBEB"/>
<path d="M146.928 99.6062H11.9304V103.801H146.928V99.6062Z" fill="#EBEBEB"/>
<path d="M146.928 158.902H11.9304V163.097H146.928V158.902Z" fill="#EBEBEB"/>
<path d="M37.2141 99.5968V52.3811H23.324L23.324 99.5968H37.2141Z" fill="#C7C7C7"/>
<path d="M37.2141 86.215V81.0271H23.324V86.215H37.2141Z" fill="#DBDBDB"/>
<path d="M37.2141 63.6185V61.6895H23.324V63.6185H37.2141Z" fill="#DBDBDB"/>
<path d="M127.182 52.3905V99.6062H141.072V52.3905H127.182Z" fill="#C7C7C7"/>
<path d="M127.182 65.7723V70.9602H141.072V65.7723H127.182Z" fill="#DBDBDB"/>
<path d="M141.081 96.7875V94.8584H127.191V96.7875H141.081Z" fill="#DBDBDB"/>
<path d="M141.072 87.9193V85.9902H127.182V87.9193H141.072Z" fill="#DBDBDB"/>
<path d="M102.171 99.5968V52.3811H91.6308V99.5968H102.171Z" fill="#C7C7C7"/>
<path d="M102.18 86.215V81.0271H91.6395V86.215H102.18Z" fill="#DBDBDB"/>
<path d="M102.18 63.6278V61.6987H91.6395V63.6278H102.18Z" fill="#DBDBDB"/>
<path d="M46.928 99.5968V44.5149H37.214V99.5968H46.928Z" fill="#DBDBDB"/>
<path d="M44.9399 70.8761V49.6936H39.1115V70.8761H44.9399Z" fill="#EBEBEB"/>
<path d="M141.081 47.802V99.5969H146.937V47.802H141.081Z" fill="#A6A6A6"/>
<path d="M142.271 51.3886V71.3069H145.784V51.3886H142.271Z" fill="#EBEBEB"/>
<path d="M102.18 49.2347V99.5969H111.894V49.2347H102.18Z" fill="#DBDBDB"/>
<path d="M104.168 75.5019V94.8677H109.997V75.5019H104.168Z" fill="#EBEBEB"/>
<path d="M63.4058 99.6064V57.7659H46.9192V99.6064H63.4058Z" fill="#A6A6A6"/>
<path d="M63.4058 95.1674V91.2717H46.9192V95.1674H63.4058Z" fill="#C7C7C7"/>
<path d="M63.4058 88.7059V87.1982H46.9192V88.7059H63.4058Z" fill="#C7C7C7"/>
<path d="M23.324 99.6157L23.324 60.2942H11.9305L11.9305 99.6157H23.324Z" fill="#A6A6A6"/>
<path d="M23.324 95.4296V91.7681H11.9305V95.4296H23.324Z" fill="#C7C7C7"/>
<path d="M23.324 72.0465V68.385H11.9305V72.0465H23.324Z" fill="#C7C7C7"/>
<path d="M23.3149 75.9891V74.5657H11.9214V75.9891H23.3149Z" fill="#C7C7C7"/>
<path d="M127.182 99.6061V44.5149H111.885V99.6061H127.182Z" fill="#A6A6A6"/>
<path d="M127.182 93.7629V88.6311H111.885V93.7629H127.182Z" fill="#C7C7C7"/>
<path d="M127.182 61.0058V55.874H111.885V61.0058H127.182Z" fill="#C7C7C7"/>
<path d="M127.182 66.5215V64.5269H111.885V66.5215H127.182Z" fill="#C7C7C7"/>
<path d="M91.603 97.7631L77.1819 52.7842L71.7775 54.6278L86.1986 99.6067L91.603 97.7631Z" fill="#A6A6A6"/>
<path d="M90.0842 92.9946L88.7388 88.7981L83.3344 90.6417L84.6799 94.8382L90.0842 92.9946Z" fill="#C7C7C7"/>
<path d="M81.5037 66.2502L80.1582 62.0537L74.7539 63.8973L76.0993 68.0938L81.5037 66.2502Z" fill="#C7C7C7"/>
<path d="M63.4148 46.6126V99.6062H71.7852V46.6126H63.4148Z" fill="#C7C7C7"/>
<path d="M63.4148 52.2312V57.1663H71.7852V52.2312H63.4148Z" fill="#EBEBEB"/>
<path d="M63.4058 83.7522V88.6873H71.7761V83.7522H63.4058Z" fill="#EBEBEB"/>
<path d="M63.4148 78.4423V80.3621H71.7852V78.4423H63.4148Z" fill="#EBEBEB"/>
<path d="M115.68 158.893V111.677H101.79V158.893H115.68Z" fill="#C7C7C7"/>
<path d="M115.68 145.511V140.323H101.79V145.511H115.68Z" fill="#DBDBDB"/>
<path d="M115.68 122.914V120.985H101.79V122.914H115.68Z" fill="#DBDBDB"/>
<path d="M17.7771 111.677L17.7771 158.893H31.6672L31.6672 111.677H17.7771Z" fill="#C7C7C7"/>
<path d="M17.7861 125.059V130.247H31.6762V125.059H17.7861Z" fill="#DBDBDB"/>
<path d="M31.676 156.083V154.154H17.7859V156.083H31.676Z" fill="#DBDBDB"/>
<path d="M31.676 147.206V145.277H17.7859V147.206H31.676Z" fill="#DBDBDB"/>
<path d="M67.2185 158.883V111.667H56.6784V158.883H67.2185Z" fill="#C7C7C7"/>
<path d="M67.2185 145.511V140.323H56.6784V145.511H67.2185Z" fill="#DBDBDB"/>
<path d="M67.2185 122.914V120.985H56.6784V122.914H67.2185Z" fill="#DBDBDB"/>
<path d="M101.78 158.893V103.811H92.0663V158.893H101.78Z" fill="#DBDBDB"/>
<path d="M99.8828 130.162V108.98H94.0544V130.162H99.8828Z" fill="#EBEBEB"/>
<path d="M11.9304 118.569L11.9304 158.884H17.786L17.786 118.569H11.9304Z" fill="#A6A6A6"/>
<path d="M13.0652 121.351L13.0652 136.858H16.5786V121.351H13.0652Z" fill="#EBEBEB"/>
<path d="M46.9734 108.521V158.884H56.6874V108.521H46.9734Z" fill="#DBDBDB"/>
<path d="M48.8708 134.789V154.154H54.6992V134.789H48.8708Z" fill="#EBEBEB"/>
<path d="M92.0752 158.902V117.062H75.5886V158.902H92.0752Z" fill="#A6A6A6"/>
<path d="M92.0752 154.454V150.558H75.5886V154.454H92.0752Z" fill="#C7C7C7"/>
<path d="M92.0845 148.002V146.494H75.5979V148.002H92.0845Z" fill="#C7C7C7"/>
<path d="M146.928 158.893V108.521H135.534V158.893H146.928Z" fill="#A6A6A6"/>
<path d="M146.937 153.555V148.863H135.543V153.555H146.937Z" fill="#C7C7C7"/>
<path d="M146.928 123.598V118.906H135.534V123.598H146.928Z" fill="#C7C7C7"/>
<path d="M146.928 128.646V126.829H135.534V128.646H146.928Z" fill="#C7C7C7"/>
<path d="M46.9734 158.902V103.811H31.6761L31.6761 158.902H46.9734Z" fill="#A6A6A6"/>
<path d="M46.9734 153.049V147.917H31.6761V153.049H46.9734Z" fill="#C7C7C7"/>
<path d="M46.9734 120.292V115.16H31.6761V120.292H46.9734Z" fill="#C7C7C7"/>
<path d="M46.9734 125.808V123.813H31.6761V125.808H46.9734Z" fill="#C7C7C7"/>
<path d="M121.092 158.901L135.513 113.922L130.109 112.079L115.688 157.057L121.092 158.901Z" fill="#DBDBDB"/>
<path d="M122.623 154.145L123.969 149.948L118.564 148.105L117.219 152.301L122.623 154.145Z" fill="#C7C7C7"/>
<path d="M131.195 127.391L132.54 123.194L127.136 121.351L125.79 125.547L131.195 127.391Z" fill="#C7C7C7"/>
<path d="M67.2185 105.899V158.893H75.5889V105.899H67.2185Z" fill="#DBDBDB"/>
<path d="M67.2185 111.527V116.462H75.5889V111.527H67.2185Z" fill="#EBEBEB"/>
<path d="M67.2185 143.048V147.983H75.5889V143.048H67.2185Z" fill="#EBEBEB"/>
<path d="M67.2185 137.729V139.649H75.5889V137.729H67.2185Z" fill="#EBEBEB"/>
<path d="M32.1755 218.198V170.982H21.6354L21.6354 218.198H32.1755Z" fill="#C7C7C7"/>
<path d="M32.1755 204.826V199.638H21.6354V204.826H32.1755Z" fill="#DBDBDB"/>
<path d="M32.1755 182.229V180.3H21.6354V182.229H32.1755Z" fill="#DBDBDB"/>
<path d="M21.6355 218.207L21.6355 163.125H11.9215L11.9215 218.207H21.6355Z" fill="#DBDBDB"/>
<path d="M19.738 189.477V168.295H13.9096V189.477H19.738Z" fill="#EBEBEB"/>
<path d="M32.1755 176.367V218.207H48.6621V176.367H32.1755Z" fill="#A6A6A6"/>
<path d="M32.1755 180.806V184.701H48.6621V180.806H32.1755Z" fill="#C7C7C7"/>
<path d="M32.1755 187.267V188.775H48.6621V187.267H32.1755Z" fill="#C7C7C7"/>
<path d="M137.459 218.198V170.982H128.907V218.198H137.459Z" fill="#C7C7C7"/>
<path d="M137.459 204.816V199.628H128.907V204.816H137.459Z" fill="#DBDBDB"/>
<path d="M137.459 182.22V180.291H128.907V182.22H137.459Z" fill="#DBDBDB"/>
<path d="M48.6714 166.871V218.207H59.729V166.871H48.6714Z" fill="#C7C7C7"/>
<path d="M48.6621 181.414V187.052H59.7197V181.414H48.6621Z" fill="#DBDBDB"/>
<path d="M59.7197 215.136V213.038H48.6621V215.136H59.7197Z" fill="#DBDBDB"/>
<path d="M59.7288 205.49V203.393H48.6711V205.49H59.7288Z" fill="#DBDBDB"/>
<path d="M85.8022 218.189V164.933H75.2621V218.189H85.8022Z" fill="#C7C7C7"/>
<path d="M85.8022 203.093V197.24H75.2621V203.093H85.8022Z" fill="#DBDBDB"/>
<path d="M85.8022 177.612V175.44H75.2621V177.612H85.8022Z" fill="#DBDBDB"/>
<path d="M65.3301 218.189V165.205H59.7196V218.189H65.3301Z" fill="#DBDBDB"/>
<path d="M64.2317 190.573V170.196H60.8636V190.573H64.2317Z" fill="#EBEBEB"/>
<path d="M110.668 167.836V218.198H128.907V167.836H110.668Z" fill="#DBDBDB"/>
<path d="M114.236 194.094V213.459H125.176V194.094H114.236Z" fill="#EBEBEB"/>
<path d="M110.668 218.198V173.202H94.1814V218.198H110.668Z" fill="#A6A6A6"/>
<path d="M110.668 213.432V209.236H94.1814V213.432H110.668Z" fill="#C7C7C7"/>
<path d="M110.668 206.492V204.863H94.1814V206.492H110.668Z" fill="#C7C7C7"/>
<path d="M146.937 218.198V167.826H137.468V218.198H146.937Z" fill="#A6A6A6"/>
<path d="M146.928 212.86V208.169H137.459V212.86H146.928Z" fill="#C7C7C7"/>
<path d="M146.937 182.903V178.212H137.468V182.903H146.937Z" fill="#C7C7C7"/>
<path d="M146.928 187.941V186.125H137.459V187.941H146.928Z" fill="#C7C7C7"/>
<path d="M75.271 218.198V170.495H65.33V218.198H75.271Z" fill="#A6A6A6"/>
<path d="M75.262 213.151V208.702H65.321V213.151H75.262Z" fill="#C7C7C7"/>
<path d="M75.262 184.786V180.337H65.321V184.786H75.262Z" fill="#C7C7C7"/>
<path d="M75.271 189.543V187.82H65.33V189.543H75.271Z" fill="#C7C7C7"/>
<path d="M85.8022 167.499V218.198H94.1726V167.499H85.8022Z" fill="#DBDBDB"/>
<path d="M85.8115 172.874V177.603H94.1819V172.874H85.8115Z" fill="#EBEBEB"/>
<path d="M85.8022 203.028V207.757H94.1726V203.028H85.8022Z" fill="#EBEBEB"/>
<path d="M85.8022 197.952V199.787H94.1726V197.952H85.8022Z" fill="#EBEBEB"/>
<path d="M279.737 305.157H396.042L399.782 229.033H275.997L279.737 305.157Z" fill="#EBEBEB"/>
<path d="M387.517 263.878H285.093L283.677 237.451H389.16L387.517 263.878ZM285.956 262.942H386.664L388.198 238.388H284.64L285.956 262.942Z" fill="#DBDBDB"/>
<path d="M386.11 294.275H288.062L286.918 270.424H387.581L386.11 294.275ZM288.879 293.338H385.275L386.609 271.36H287.844L288.879 293.338Z" fill="#DBDBDB"/>
<path d="M348.089 253.53H326.374L325.575 247.153H348.888L348.089 253.53ZM327.209 252.594H347.327L347.89 248.09H326.646L327.209 252.594Z" fill="#DBDBDB"/>
<path d="M348.089 285.538H326.374L325.575 279.161H348.888L348.089 285.538ZM327.209 284.602H347.327L347.89 280.097H326.646L327.209 284.602Z" fill="#DBDBDB"/>
<path d="M295.869 305.157L294.743 313.444L292.465 330.104H288.025V305.157H295.869Z" fill="#EBEBEB"/>
<path d="M295.869 305.157L294.743 313.444H288.025V305.157H295.869Z" fill="#DBDBDB"/>
<path d="M379.918 305.157L381.044 313.444L383.314 330.104H387.753V305.157H379.918Z" fill="#EBEBEB"/>
<path d="M379.918 305.157L381.044 313.444H387.753V305.157H379.918Z" fill="#DBDBDB"/>
<path d="M390.622 192.596H344.848V201.417H390.622V192.596Z" fill="#C7C7C7"/>
<path d="M377.649 192.596H372.619V201.417H377.649V192.596Z" fill="#DBDBDB"/>
<path d="M355.751 192.596H353.881V201.417H355.751V192.596Z" fill="#DBDBDB"/>
<path d="M392.156 182.819H334.208V192.586H392.156V182.819Z" fill="#A6A6A6"/>
<path d="M386.01 182.819H380.608V192.586H386.01V182.819Z" fill="#C7C7C7"/>
<path d="M351.548 182.819H346.146V192.586H351.548V182.819Z" fill="#C7C7C7"/>
<path d="M357.349 182.819H355.252V192.586H357.349V182.819Z" fill="#C7C7C7"/>
<path d="M345.575 216.653H394.726V208.019H345.575V216.653Z" fill="#A6A6A6"/>
<path d="M350.785 216.653H355.37V208.019H350.785V216.653Z" fill="#EBEBEB"/>
<path d="M380.009 216.653H384.594V208.019H380.009V216.653Z" fill="#EBEBEB"/>
<path d="M375.098 216.653H376.877V208.019H375.098V216.653Z" fill="#EBEBEB"/>
<path d="M392.238 216.653H331.43V229.033H392.238V216.653Z" fill="#C7C7C7"/>
<path d="M370.159 217.936H331.43V227.75H370.159V217.936Z" fill="white"/>
<path d="M333.936 219.949C336.962 219.887 339.988 219.84 343.015 219.809L352.093 219.762L361.172 219.809C364.195 219.809 367.209 219.884 370.25 219.949C367.227 220.024 364.213 220.071 361.172 220.099H352.093H343.015C339.982 220.068 336.956 220.018 333.936 219.949Z" fill="#DBDBDB"/>
<path d="M333.936 221.878C336.959 221.813 339.973 221.756 343.015 221.728H352.093H361.172C364.195 221.728 367.209 221.803 370.25 221.878C367.227 221.944 364.213 222 361.172 222.019L352.093 222.065L343.015 222.019C339.973 222 336.959 221.944 333.936 221.878Z" fill="#DBDBDB"/>
<path d="M333.936 223.798C336.962 223.736 339.988 223.689 343.015 223.657H352.093H361.172C364.195 223.657 367.209 223.732 370.25 223.798C367.227 223.873 364.213 223.92 361.172 223.948L352.093 223.995L343.015 223.948C339.982 223.923 336.956 223.873 333.936 223.798Z" fill="#DBDBDB"/>
<path d="M333.936 225.727C336.959 225.662 339.973 225.605 343.015 225.587H352.093H361.172C364.195 225.587 367.209 225.671 370.25 225.737C367.227 225.802 364.213 225.858 361.172 225.886H352.093L343.015 225.84C339.973 225.849 336.959 225.793 333.936 225.727Z" fill="#DBDBDB"/>
<path d="M387.327 201.417H332.102V208.019H387.327V201.417Z" fill="#EBEBEB"/>
<path d="M354.889 207.335H387.335V202.1H354.889V207.335Z" fill="white"/>
<path d="M385.202 206.258C382.678 206.258 380.145 206.305 377.622 206.315H370.032H362.451C359.919 206.315 357.395 206.315 354.862 206.258C357.395 206.258 359.919 206.212 362.451 206.202H370.032H377.622C380.173 206.212 382.706 206.23 385.202 206.258Z" fill="#DBDBDB"/>
<path d="M385.202 205.228C382.678 205.228 380.145 205.228 377.622 205.284H370.032H362.451C359.919 205.284 357.395 205.284 354.862 205.228C357.395 205.228 359.919 205.181 362.451 205.172H377.622L385.202 205.228Z" fill="#DBDBDB"/>
<path d="M385.202 204.207C382.678 204.207 380.145 204.254 377.622 204.263H370.032H362.451C359.919 204.263 357.395 204.263 354.862 204.207C357.395 204.207 359.919 204.16 362.451 204.151H370.032H377.622C380.173 204.16 382.706 204.179 385.202 204.207Z" fill="#DBDBDB"/>
<path d="M385.202 203.178C382.678 203.178 380.145 203.224 377.622 203.234H370.032H362.451C359.919 203.234 357.395 203.234 354.862 203.178C357.395 203.178 359.919 203.131 362.451 203.121H370.032H377.622C380.173 203.131 382.706 203.149 385.202 203.178Z" fill="#DBDBDB"/>
<path d="M284.194 100.365H314.362V69.2466H284.194V100.365Z" fill="#DBDBDB"/>
<path d="M288.87 95.542H309.687V74.0692H288.87V95.542Z" fill="white"/>
<path d="M309.678 74.0693V95.5421H288.861L309.678 74.0693Z" fill="#EBEBEB"/>
<path d="M284.194 62.1013L314.362 62.1013V30.9831L284.194 30.9831V62.1013Z" fill="#DBDBDB"/>
<path d="M288.87 57.2695H309.687V35.7968H288.87V57.2695Z" fill="white"/>
<path d="M309.678 42.1082V57.2693H294.98L309.678 42.1082Z" fill="#EBEBEB"/>
<path d="M237.54 100.627H276.968V30.9833H237.54V100.627Z" fill="#DBDBDB"/>
<path d="M242.415 95.542H272.093V36.0588L242.415 36.0588V95.542Z" fill="white"/>
<path d="M272.093 56.5483V95.542H252.638L272.093 56.5483Z" fill="#EBEBEB"/>
<path d="M321.398 100.627L388.915 100.627V30.9833L321.398 30.9833V100.627Z" fill="#DBDBDB"/>
<path d="M383.986 36.0588H326.328V95.542H383.986V36.0588Z" fill="white"/>
<path d="M342.47 95.542C351.185 86.4959 375.906 60.8934 383.986 52.6433V95.542H342.47Z" fill="#EBEBEB"/>
<path d="M0.00146484 330.103L50.0058 329.879L100.001 329.794L200.001 329.645L300 329.794L349.996 329.879L400 330.103L349.996 330.338L300 330.422L200.001 330.572L100.001 330.422L50.0058 330.338L0.00146484 330.103Z" fill="#495057"/>
<path d="M200.001 400C302.42 400 385.447 389.338 385.447 376.186C385.447 363.034 302.42 352.372 200.001 352.372C97.5814 352.372 14.5542 363.034 14.5542 376.186C14.5542 389.338 97.5814 400 200.001 400Z" fill="#EBEBEB"/>
<path d="M153.265 318.763H340.019V280.753H153.265V318.763Z" fill="#EF233C"/>
<path d="M305.157 318.763H323.405V280.753H305.157V318.763Z" fill="#37474F"/>
<path d="M290.767 318.763H298.384V280.753H290.767V318.763Z" fill="#37474F"/>
<path d="M170.241 318.763H188.489V280.753H170.241V318.763Z" fill="#37474F"/>
<path d="M123.311 184.121L75.3535 370.298L101.825 377.553L149.782 191.376L123.311 184.121Z" fill="#37474F"/>
<path d="M84.3007 335.541L79.6147 353.732L106.086 360.987L110.772 342.796L84.3007 335.541Z" fill="#EF233C"/>
<path d="M118.952 201.057L114.266 219.248L140.737 226.503L145.423 208.312L118.952 201.057Z" fill="#EF233C"/>
<path d="M113.737 376.748H330.032V357.748H113.737V376.748Z" fill="#EF233C"/>
<path d="M272.992 376.748H281.807V357.748H272.992V376.748Z" fill="#A6A6A6"/>
<path d="M287.635 376.748H296.451V357.748H287.635V376.748Z" fill="#A6A6A6"/>
<path d="M135.317 376.748H144.132V357.748H135.317V376.748Z" fill="#A6A6A6"/>
<path d="M149.951 376.748H158.767V357.748H149.951V376.748Z" fill="#A6A6A6"/>
<path d="M263.678 252.397H134.127V280.753H263.678V252.397Z" fill="#455A64"/>
<path d="M337.522 252.397H263.668V280.753H337.522V252.397Z" fill="#455A64"/>
<path d="M263.678 255.337H134.127V277.812H263.678V255.337Z" fill="white"/>
<path d="M142.507 259.964C152.602 259.801 162.7 259.692 172.802 259.636L203.088 259.533L233.383 259.636C243.478 259.692 253.573 259.801 263.668 259.964C253.573 260.12 243.478 260.232 233.383 260.301L203.088 260.394L172.765 260.291C162.694 260.235 152.608 260.126 142.507 259.964Z" fill="#DBDBDB"/>
<path d="M142.507 264.374C152.602 264.218 162.7 264.106 172.802 264.037L203.088 263.943L233.383 264.037C243.478 264.106 253.573 264.218 263.668 264.374C253.573 264.53 243.478 264.639 233.383 264.702L203.088 264.805L172.765 264.702C162.694 264.646 152.608 264.536 142.507 264.374Z" fill="#DBDBDB"/>
<path d="M142.507 268.785C152.602 268.629 162.7 268.517 172.802 268.448L203.088 268.354L233.383 268.448C243.478 268.504 253.573 268.616 263.668 268.785C253.573 268.947 243.478 269.057 233.383 269.113L203.088 269.216L172.765 269.113C162.694 269.057 152.608 268.947 142.507 268.785Z" fill="#DBDBDB"/>
<path d="M142.507 273.196C152.602 273.033 162.7 272.921 172.802 272.858L203.088 272.755L233.383 272.858C243.478 272.915 253.573 273.027 263.668 273.196C253.573 273.358 243.478 273.467 233.383 273.523L203.088 273.626L172.765 273.523C162.694 273.467 152.608 273.358 142.507 273.196Z" fill="#DBDBDB"/>
<path d="M252.774 168.978H146.746V189.337H252.774V168.978Z" fill="#A6A6A6"/>
<path d="M313.219 168.978H252.774V189.337H313.219V168.978Z" fill="#A6A6A6"/>
<path d="M252.774 171.094H146.746V187.229H252.774V171.094Z" fill="white"/>
<path d="M153.61 174.41C161.877 174.297 170.142 174.219 178.403 174.176L203.197 174.101L227.99 174.176C236.251 174.213 244.513 174.291 252.774 174.41C244.513 174.522 236.251 174.603 227.99 174.653L203.197 174.719L178.403 174.653C170.142 174.609 161.877 174.528 153.61 174.41Z" fill="#DBDBDB"/>
<path d="M153.61 177.575C161.877 177.463 170.142 177.384 178.403 177.341L203.197 177.266L227.99 177.341C236.251 177.378 244.513 177.456 252.774 177.575C244.513 177.687 236.251 177.768 227.99 177.818L203.197 177.884L178.403 177.818C170.142 177.775 161.877 177.694 153.61 177.575Z" fill="#DBDBDB"/>
<path d="M153.61 180.74C161.877 180.628 170.142 180.55 178.403 180.506L203.197 180.431L227.99 180.506C236.251 180.543 244.513 180.621 252.774 180.74C244.513 180.859 236.251 180.94 227.99 180.983L203.197 181.049L178.403 180.983C170.142 180.94 161.877 180.859 153.61 180.74Z" fill="#DBDBDB"/>
<path d="M153.61 183.952C161.877 183.839 170.142 183.761 178.403 183.718L203.197 183.643L227.99 183.718C236.251 183.755 244.513 183.833 252.774 183.952C244.513 184.077 236.251 184.158 227.99 184.195L203.197 184.261L178.403 184.195C170.142 184.12 161.877 184.039 153.61 183.952Z" fill="#DBDBDB"/>
<path d="M114.336 220.464L88.5169 320.524L73.7916 377.572L59.5837 373.667L74.3091 316.619L100.128 216.559L114.336 220.464Z" fill="#EF233C"/>
<path opacity="0.1" d="M114.336 220.464L88.5169 320.524L73.7916 377.572L59.5837 373.667L74.3091 316.619L100.128 216.559L114.336 220.464Z" fill="black"/>
<path d="M87.0356 320.097L112.864 220.04L101.599 216.946L75.7713 317.003L87.0356 320.097Z" fill="white"/>
<path d="M108.871 225.896C106.946 233.712 104.991 241.515 103.006 249.307L97.0145 272.718L90.9319 296.129C88.8862 303.92 86.8163 311.705 84.7222 319.484C86.6589 311.662 88.6169 303.858 90.596 296.073L96.5787 272.662L102.67 249.251C104.716 241.459 106.783 233.674 108.871 225.896Z" fill="#DBDBDB"/>
<path d="M106.665 225.287C104.734 233.116 102.776 240.919 100.791 248.698L94.8082 272.109L88.7165 295.52C86.6768 303.312 84.61 311.097 82.5159 318.875C84.4466 311.059 86.4045 303.256 88.3897 295.464L94.3724 272.053L100.464 248.642C102.51 240.851 104.577 233.066 106.665 225.287Z" fill="#DBDBDB"/>
<path d="M104.459 224.688C102.528 232.51 100.57 240.314 98.5848 248.099L92.6021 271.51L86.5104 294.921C84.4708 302.712 82.4039 310.494 80.3098 318.267C82.2345 310.444 84.1894 302.641 86.1745 294.856L92.1663 271.444L98.2489 248.033C100.289 240.273 102.358 232.491 104.459 224.688Z" fill="#DBDBDB"/>
<path d="M102.243 224.079C100.319 231.895 98.3637 239.699 96.3786 247.49L90.3868 270.901L84.3042 294.312C82.2645 302.104 80.1946 309.886 78.0945 317.658C80.0252 309.842 81.9831 302.038 83.9683 294.247L89.951 270.836L96.0427 247.425C98.0884 239.633 100.155 231.851 102.243 224.079Z" fill="#DBDBDB"/>
<path d="M206.601 357.738H315.134V318.763H206.601V357.738Z" fill="#495057"/>
<path d="M130.369 357.738H206.601V318.763H130.369V357.738Z" fill="#495057"/>
<path d="M206.601 353.693H315.134V322.809H206.601V353.693Z" fill="white"/>
<path d="M308.107 347.343C299.634 347.499 291.176 347.609 282.733 347.671L257.359 347.774L231.939 347.671C223.466 347.615 214.992 347.506 206.519 347.343C214.992 347.187 223.466 347.075 231.939 347.006L257.359 346.913L282.733 347.006C291.194 347.075 299.652 347.187 308.107 347.343Z" fill="#DBDBDB"/>
<path d="M308.107 341.275C299.634 341.431 291.176 341.541 282.733 341.603L257.359 341.706L231.939 341.603C223.466 341.547 214.992 341.438 206.519 341.275C214.992 341.119 223.466 341.007 231.939 340.938L257.359 340.844L282.733 340.938C291.194 341.001 299.652 341.113 308.107 341.275Z" fill="#DBDBDB"/>
<path d="M308.107 335.226C299.634 335.382 291.176 335.491 282.733 335.554L257.359 335.657L231.939 335.554C223.466 335.497 214.992 335.388 206.519 335.226C214.992 335.063 223.466 334.951 231.939 334.889L257.359 334.786L282.733 334.889C291.194 334.945 299.652 335.057 308.107 335.226Z" fill="#DBDBDB"/>
<path d="M308.107 329.167C299.634 329.33 291.176 329.439 282.733 329.495L257.359 329.598L231.939 329.495C223.466 329.439 214.992 329.33 206.519 329.167C214.992 328.999 223.466 328.886 231.939 328.83L257.359 328.727L282.733 328.83C291.194 328.886 299.652 328.999 308.107 329.167Z" fill="#DBDBDB"/>
<path d="M340.581 225.952H141.381V252.509H340.581V225.952Z" fill="#C7C7C7"/>
<path d="M236.723 231.374H160.11V247.312H236.723V231.374Z" fill="white"/>
<path d="M327.136 231.374H255.216V233.837H327.136V231.374Z" fill="white"/>
<path d="M327.136 238.004H255.216V240.467H327.136V238.004Z" fill="white"/>
<path d="M327.136 244.625H255.216V247.087H327.136V244.625Z" fill="white"/>
<path d="M302.043 189.336H155.153V225.83H302.043V189.336Z" fill="#EF233C"/>
<path d="M286.464 189.336H272.774V225.83H286.464V189.336Z" fill="#495057"/>
<path d="M263.795 189.336H258.484V225.83H263.795V189.336Z" fill="#495057"/>
<path d="M43.9233 304.876C49.6882 292.646 59.7744 286.371 71.1588 289.846C82.5433 293.32 84.2863 309.661 75.807 313.791C67.3277 317.92 58.8302 305.859 54.3455 303.387C49.8607 300.914 43.9233 304.876 43.9233 304.876Z" fill="#EF233C"/>
<path d="M38.3399 337.408C38.3399 335.928 38.4307 334.458 38.4761 332.988C38.576 330.047 38.6758 327.097 38.7848 324.157C38.9754 318.782 39.5383 313.5 41.699 308.537C43.6063 304.04 46.7948 300.248 50.841 297.665C52.344 296.732 53.9626 296.014 55.6526 295.53C57.1794 293.93 59.1265 292.827 61.254 292.355C63.8874 291.8 66.5953 291.73 69.2522 292.149C69.3521 292.149 69.343 292.308 69.2522 292.299C66.7177 291.967 64.1446 292.154 61.6807 292.851C60.6293 293.153 59.6104 293.564 58.6394 294.078C58.0275 294.42 57.4391 294.805 56.8782 295.23C59.1717 294.741 61.5402 294.767 63.8233 295.305C64.6449 295.51 65.4494 295.782 66.2291 296.12C66.8519 295.98 67.4896 295.923 68.1265 295.951C68.9571 295.979 69.7822 296.101 70.5867 296.316C72.2314 296.795 73.8046 297.503 75.2622 298.423C75.353 298.47 75.2622 298.601 75.1895 298.554C73.7638 297.749 72.2359 297.154 70.6503 296.785C69.8802 296.601 69.0969 296.482 68.308 296.429C67.8726 296.405 67.4362 296.405 67.0007 296.429C70.2397 297.97 72.8425 300.649 74.3452 303.986C74.3452 304.079 74.2545 304.154 74.2181 304.061C73.3191 302.124 72.0068 300.422 70.3795 299.082C68.7523 297.743 66.8523 296.8 64.8219 296.326C64.5677 296.26 64.3135 296.223 64.0593 296.167C64.1501 296.55 64.1319 296.981 64.1864 297.356C64.259 297.946 64.3589 298.536 64.4678 299.126C64.7022 300.335 65.0053 301.53 65.3757 302.703C65.7618 303.891 66.2228 305.051 66.7556 306.177C67.2671 307.366 67.9131 308.488 68.6803 309.52C68.7438 309.605 68.6167 309.708 68.5622 309.614C67.8723 308.509 67.0824 307.488 66.456 306.346C65.8613 305.25 65.3454 304.111 64.9127 302.937C64.4819 301.743 64.1449 300.516 63.905 299.266C63.7779 298.611 63.678 297.946 63.6054 297.281C63.527 296.884 63.5026 296.477 63.5327 296.073C62.1959 295.859 60.8376 295.828 59.4928 295.979C60.0012 298.901 60.5459 301.935 62.1256 304.473C62.18 304.557 62.0348 304.632 61.9894 304.548C61.2517 303.201 60.5997 301.806 60.0375 300.371C59.52 298.979 59.1931 297.52 59.0661 296.035C56.7197 296.357 54.4547 297.139 52.3934 298.339C48.5068 300.667 45.4049 304.167 43.5056 308.368C41.5019 312.889 40.385 317.775 40.2192 322.743C39.8379 328.989 39.7652 335.273 39.157 341.472C39.157 341.875 38.4942 342.015 38.4216 341.556C38.2646 340.179 38.2372 338.79 38.3399 337.408Z" fill="#495057"/>
<path d="M51.667 296.691C52.044 296.215 52.4841 295.796 52.9743 295.446C53.4464 295.043 53.8822 294.65 54.436 294.294C55.4365 293.588 56.5441 293.06 57.7133 292.73C57.8041 292.73 57.8404 292.861 57.7133 292.88C56.5353 293.183 55.4335 293.742 54.4814 294.519C54.0002 294.884 53.5735 295.277 53.0833 295.68C52.6834 296.111 52.2424 296.5 51.7669 296.841C51.7124 296.888 51.6035 296.775 51.667 296.691Z" fill="#495057"/>
<path d="M70.0601 301.12C71.0151 302.262 71.8975 303.467 72.7019 304.726C73.4927 305.994 74.153 307.343 74.6719 308.752C74.6719 308.752 74.6719 308.818 74.5993 308.752C73.2829 306.089 71.7267 303.559 69.9511 301.195C69.8876 301.149 69.9965 301.008 70.0601 301.12Z" fill="#495057"/>
<path d="M57.6589 299.912C57.781 300.676 58.0008 301.419 58.3126 302.122C58.629 302.803 58.9962 303.458 59.4111 304.08C59.4111 304.08 59.4111 304.164 59.3475 304.126C58.3584 302.948 57.727 301.495 57.5318 299.95C57.4683 299.847 57.6408 299.809 57.6589 299.912Z" fill="#495057"/>
<path d="M39.1478 305.175C39.1478 305.175 30.9772 294.593 15.2351 298.339C0.273695 301.945 -6.6532 330.225 8.44434 333.615C23.5419 337.005 20.9091 310.794 26.4198 306.346C30.5051 303.087 36.3244 303.817 39.1478 305.175Z" fill="#EF233C"/>
<path d="M3.06092 313.809C4.08791 312.881 5.17367 312.024 6.31102 311.244C7.37766 310.487 8.54197 309.888 9.76993 309.464C10.3788 308.498 11.0651 307.587 11.8217 306.739C13.2188 305.192 14.835 303.873 16.6151 302.825H16.143C15.3078 302.825 14.4726 302.825 13.6374 302.825C11.958 302.936 10.3121 303.361 8.78037 304.08C8.68959 304.08 8.62604 303.977 8.71682 303.939C10.27 303.243 11.8971 302.737 13.5647 302.432C14.3762 302.278 15.1999 302.202 16.025 302.207C16.4699 302.207 16.9329 302.207 17.3505 302.291H17.6047C19.0487 301.539 20.5718 300.961 22.1439 300.568L21.7082 300.446C20.9261 300.274 20.1349 300.149 19.3387 300.072C17.7688 299.881 16.1813 299.907 14.6178 300.147C14.5271 300.147 14.4998 300.006 14.6178 299.988C16.199 299.791 17.7928 299.725 19.3841 299.791C20.7203 299.834 22.0491 300.013 23.3514 300.325C24.2986 300.141 25.2573 300.029 26.2202 299.988C31.6673 299.744 37.7045 301.86 41.0817 306.543C44.4589 311.225 45.1307 317.424 45.7299 323.052C46.6462 330.888 46.8469 338.795 46.329 346.669C46.329 347.138 45.6572 347.044 45.6482 346.604C45.4394 339.927 45.2124 333.25 44.595 326.592C44.3045 323.511 43.9868 320.421 43.4875 317.368C43.1319 314.737 42.4007 312.174 41.3177 309.764C40.1515 307.278 38.2929 305.208 35.9796 303.818C33.6618 302.455 31.0778 301.646 28.4172 301.448C26.0397 301.244 23.6459 301.472 21.345 302.123C21.4131 302.601 21.4131 303.087 21.345 303.565C21.2888 304.168 21.1732 304.765 21 305.344C20.8244 305.887 20.6026 306.414 20.3373 306.917C20.0468 307.479 19.6836 307.975 19.3568 308.509C19.3024 308.593 19.1753 308.509 19.2297 308.416C19.8765 307.462 20.2963 306.365 20.4553 305.213C20.5551 304.665 20.6188 304.112 20.646 303.555C20.646 303.143 20.646 302.713 20.646 302.301C18.1472 303.092 15.8156 304.363 13.7735 306.046C13.3832 306.365 13.02 306.702 12.6569 307.039C13.1739 307.539 13.6228 308.109 13.9914 308.734C14.5594 309.544 15.0547 310.406 15.4712 311.309C16.1997 313.106 16.6913 314.996 16.9329 316.928C16.9273 316.944 16.9169 316.959 16.903 316.969C16.8892 316.979 16.8727 316.984 16.8557 316.984C16.8387 316.984 16.8222 316.979 16.8084 316.969C16.7945 316.959 16.7841 316.944 16.7785 316.928C16.4811 315.047 15.8666 313.234 14.9628 311.571C14.5459 310.749 14.0789 309.954 13.5647 309.193C13.3015 308.799 13.0291 308.416 12.7386 308.041C12.5843 307.844 12.4118 307.638 12.2665 307.423C10.4136 309.293 8.90077 311.491 7.79989 313.912C8.5341 314.725 9.14612 315.647 9.61559 316.647C10.2077 317.716 10.7264 318.827 11.168 319.971C11.9302 322.135 12.5579 324.346 13.0473 326.592C13.0473 326.695 12.9202 326.723 12.902 326.592C12.4234 324.32 11.6732 322.118 10.6687 320.037C10.1966 319.026 9.6973 318.023 9.17983 317.031C8.63119 316.127 8.13699 315.188 7.70003 314.222C6.64367 316.579 6.02768 319.12 5.88433 321.713C5.88433 321.816 5.72092 321.797 5.72999 321.713C6.01917 317.629 7.23176 313.671 9.27061 310.157C8.30829 310.579 7.33689 310.991 6.41088 311.506C5.22508 312.152 4.1238 312.951 3.13355 313.884C3.08815 313.997 2.99737 313.875 3.06092 313.809Z" fill="#495057"/>
<path d="M14.6177 314.409C15.0898 316.01 15.689 317.574 16.1157 319.194C16.5491 320.747 16.7811 322.353 16.8056 323.97C16.8056 324.017 16.7421 324.017 16.733 323.97C16.3088 320.725 15.551 317.535 14.4725 314.455C14.4695 314.446 14.4684 314.435 14.4693 314.425C14.4702 314.415 14.473 314.405 14.4777 314.396C14.4823 314.386 14.4886 314.378 14.4963 314.372C14.504 314.365 14.5129 314.36 14.5224 314.357C14.5319 314.354 14.542 314.353 14.5519 314.354C14.5619 314.355 14.5715 314.358 14.5804 314.362C14.5892 314.367 14.5971 314.374 14.6035 314.382C14.6099 314.39 14.6147 314.399 14.6177 314.409Z" fill="#495057"/>
<path d="M4.64061 310.429C5.25721 309.811 5.96126 309.293 6.72866 308.893C7.50612 308.525 8.3144 308.23 9.14354 308.013C9.23433 308.013 9.26156 308.144 9.14354 308.163C8.32921 308.38 7.54735 308.711 6.81945 309.146C6.07592 309.547 5.36005 310.001 4.67692 310.504C4.67228 310.51 4.66613 310.515 4.65906 310.519C4.65199 310.522 4.64424 310.523 4.63653 310.522C4.62883 310.522 4.62142 310.519 4.61503 310.514C4.60864 310.51 4.60347 310.504 4.60001 310.497C4.59655 310.49 4.59491 310.482 4.59526 310.474C4.59561 310.466 4.59793 310.458 4.60199 310.451C4.60606 310.444 4.61174 310.439 4.6185 310.435C4.62526 310.431 4.63287 310.429 4.64061 310.429Z" fill="#495057"/>
<path d="M31.3857 291.044C31.3857 291.044 29.8877 272.034 16.1792 265.873C4.74028 260.722 -1.80532 273.982 6.28363 282.101C12.8201 288.666 23.3149 285.706 31.3857 291.044Z" fill="#EF233C"/>
<path d="M8.81661 269.553C10.9028 270.419 12.9369 271.414 14.9083 272.531C16.5508 273.505 18.1308 274.587 19.6382 275.771C19.4112 275.284 19.2115 274.778 18.9845 274.31C18.6214 273.579 18.2401 272.858 17.8225 272.165C16.9777 270.729 15.9621 269.408 14.7993 268.232C14.7358 268.167 14.7993 268.054 14.9083 268.129C16.0682 269.307 17.1311 270.581 18.0858 271.941C18.5595 272.633 18.996 273.352 19.3931 274.094C19.7893 274.776 20.0947 275.51 20.3009 276.276C20.3009 276.323 20.4008 276.351 20.4552 276.398C22.8482 278.361 25.0387 280.574 26.9918 283C26.9918 282.813 26.9191 282.626 26.8737 282.457C26.6195 281.521 26.3381 280.584 26.0385 279.694C25.4534 277.743 24.6232 275.88 23.5692 274.151C23.5595 274.133 23.557 274.113 23.5621 274.093C23.5672 274.074 23.5795 274.058 23.5964 274.048C23.6133 274.038 23.6332 274.035 23.652 274.04C23.6707 274.046 23.6866 274.058 23.6963 274.076C24.7898 275.799 25.7607 277.602 26.6014 279.47C26.9711 280.382 27.2746 281.321 27.5092 282.279C27.7106 282.889 27.8624 283.516 27.9632 284.152C28.5533 284.929 29.1434 285.716 29.6972 286.531C35.58 295.165 38.5305 305.615 39.2387 316.066C39.4444 319.183 39.4959 322.308 39.393 325.431C39.3673 328.569 39.0971 331.701 38.585 334.795C38.585 334.992 38.2491 334.926 38.2582 334.739C38.3217 331.986 38.6032 329.251 38.6486 326.507C38.7006 323.78 38.6188 321.051 38.4034 318.332C37.9739 312.843 36.9725 307.418 35.4166 302.15C33.8105 296.764 31.4526 291.647 28.4171 286.961C27.8361 286.84 27.2641 286.68 26.6922 286.531L24.6495 285.969C23.3336 285.616 22.0536 285.133 20.8275 284.527C20.7367 284.48 20.8275 284.339 20.9092 284.386C22.1166 285.068 23.4274 285.533 24.7857 285.763C25.8569 285.978 26.9736 286.128 28.0449 286.381C27.0579 284.884 25.9942 283.443 24.8583 282.064C22.2471 282.302 19.6156 282.096 17.069 281.455C15.7136 281.126 14.382 280.7 13.0835 280.181C11.7036 279.629 10.3599 278.936 9.05265 278.309C8.95278 278.309 9.05265 278.112 9.1162 278.168C11.5681 279.55 14.2454 280.454 17.0145 280.837C19.4584 281.242 21.9291 281.452 24.4044 281.464C23.433 280.313 22.4253 279.198 21.354 278.14C17.7226 274.6 13.483 271.36 8.74398 269.665C8.68043 269.665 8.72582 269.515 8.81661 269.553Z" fill="#495057"/>
<path d="M19.9651 269.609C20.5804 270.414 21.1416 271.262 21.6446 272.147C22.1599 273.077 22.5652 274.067 22.8521 275.096C22.8521 275.096 22.8521 275.143 22.7976 275.096C22.3437 274.16 21.9533 273.224 21.4903 272.287C21.0377 271.373 20.4898 270.513 19.8562 269.721C19.7926 269.637 19.9015 269.534 19.9651 269.609Z" fill="#495057"/>
<path d="M42.0347 287.617C42.1164 288.441 44.1046 280.715 55.6525 273.86C66.1745 267.633 78.73 251.442 68.4169 241.206C60.1373 232.956 38.1945 250.955 42.0347 287.617Z" fill="#EF233C"/>
<path d="M34.064 331.911C34.2238 323.875 34.8301 315.855 35.8797 307.891C36.7919 300.558 38.4316 293.341 40.773 286.353C41.6809 283.843 42.5887 281.371 43.6872 278.936C43.6314 278 43.6466 277.061 43.7326 276.127C43.7871 274.909 43.896 273.701 44.0049 272.484C44.1139 271.267 44.2319 270.059 44.3772 268.851C44.5224 267.643 44.7675 266.435 44.8129 265.227C44.8129 265.217 44.8148 265.207 44.8185 265.198C44.8221 265.189 44.8275 265.181 44.8342 265.174C44.841 265.167 44.849 265.161 44.8578 265.157C44.8666 265.154 44.876 265.152 44.8856 265.152C44.8951 265.152 44.9045 265.154 44.9134 265.157C44.9222 265.161 44.9302 265.167 44.9369 265.174C44.9437 265.181 44.949 265.189 44.9527 265.198C44.9563 265.207 44.9582 265.217 44.9582 265.227C44.7285 266.497 44.5889 267.784 44.5406 269.075C44.4589 270.246 44.3862 271.426 44.359 272.596C44.3318 273.767 44.359 274.947 44.359 276.127C44.359 276.548 44.359 276.998 44.359 277.457C45.4484 275.078 46.6196 272.774 47.8815 270.461C47.1007 265.508 48.1175 260.329 49.098 255.478C49.098 255.385 49.2614 255.422 49.2432 255.525C48.7622 258.055 48.507 260.626 48.4806 263.204C48.4806 265.236 48.526 267.268 48.5351 269.3C48.8166 268.813 49.0889 268.364 49.3703 267.849C50.8774 265.314 52.4812 262.842 54.1819 260.432C54.0485 259.256 54.0883 258.065 54.3 256.902C54.4867 255.596 54.7659 254.307 55.1352 253.043C55.5074 251.779 55.9341 250.534 56.4243 249.298C56.9146 248.061 57.5864 246.844 58.0766 245.552C58.0808 245.543 58.0867 245.534 58.094 245.527C58.1012 245.521 58.1098 245.515 58.119 245.512C58.1283 245.508 58.1382 245.507 58.148 245.507C58.1579 245.508 58.1675 245.51 58.1765 245.514C58.1854 245.519 58.1935 245.525 58.2001 245.532C58.2068 245.54 58.212 245.549 58.2153 245.558C58.2187 245.568 58.2202 245.578 58.2198 245.588C58.2193 245.598 58.217 245.608 58.2128 245.617C57.5925 246.805 57.1052 248.062 56.7602 249.363C56.3846 250.592 56.0814 251.843 55.8524 253.109C55.6073 254.364 55.4075 255.628 55.2351 256.855C55.117 257.698 55.0444 258.568 54.9082 259.421C57.3854 255.982 60.0944 252.727 63.0153 249.682C63.0306 249.674 63.0477 249.672 63.0644 249.675C63.081 249.677 63.0964 249.686 63.1083 249.698C63.1203 249.71 63.1282 249.726 63.1311 249.743C63.1339 249.76 63.1316 249.778 63.1243 249.794C58.7011 254.913 54.75 260.447 51.3222 266.322L50.95 266.987C51.5946 266.575 52.3209 266.247 52.92 265.901C54.0458 265.264 55.1715 264.618 56.3063 264.028C57.4411 263.438 58.4942 262.801 59.5837 262.155C60.1465 261.837 60.7003 261.5 61.2723 261.219C61.9536 260.898 62.6093 260.522 63.2332 260.095C63.324 260.029 63.4148 260.17 63.324 260.217C62.2073 260.853 61.2269 261.79 60.1465 262.502C59.0662 263.213 57.9586 263.897 56.8419 264.543C54.7811 265.732 52.5387 266.584 50.487 267.811C49.0798 270.349 47.7634 272.952 46.5923 275.602C47.8179 274.788 49.0798 274.02 50.3508 273.28C51.177 272.812 51.994 272.344 52.8293 271.885C53.659 271.496 54.442 271.009 55.1624 270.433C55.2351 270.368 55.3349 270.48 55.2623 270.546C53.9172 271.801 52.4223 272.874 50.8138 273.739C49.325 274.675 47.827 275.509 46.2746 276.286C45.0399 279.095 43.9142 281.905 42.9246 284.836C38.0495 299.079 36.2519 314.193 35.3985 329.214C35.1443 333.69 35.0172 338.167 34.9628 342.643C34.9083 347.119 35.1353 351.595 35.1262 356.071C35.1262 356.203 34.9174 356.231 34.8992 356.071C34.3727 352.101 34.2819 348.065 34.1185 344.066C33.9551 340.068 33.9823 335.966 34.064 331.911Z" fill="#495057"/>
<path d="M55.1169 267.427C57.2294 266.457 59.2847 265.359 61.2722 264.14C63.2802 262.967 65.2286 261.689 67.1096 260.31C67.1096 260.31 67.1823 260.31 67.1096 260.366C65.3334 261.848 63.4586 263.2 61.4991 264.412C59.4471 265.597 57.3246 266.648 55.1442 267.558C55.0988 267.596 55.0261 267.465 55.1169 267.427Z" fill="#495057"/>
<path d="M51.758 251.32C51.9305 250.627 52.1393 249.944 52.3662 249.269C52.3662 249.269 52.3662 249.223 52.3662 249.194C52.5115 248.801 52.6658 248.427 52.8201 248.043L52.8746 247.902L52.9563 247.687L52.8474 248.08C52.8304 248.156 52.8092 248.231 52.7838 248.305C52.0361 250.966 51.4778 253.679 51.1134 256.424C51.1134 256.508 50.9681 256.517 50.9772 256.424C51.0787 254.701 51.3402 252.992 51.758 251.32Z" fill="#495057"/>
<path d="M21.8262 334.786L22.6523 344.89L25.1852 375.708H52.2936L54.8174 344.89L55.6436 334.786H21.8262Z" fill="#455A64"/>
<path d="M21.8262 334.786L22.6523 344.89H54.8174L55.6436 334.786H21.8262Z" fill="#495057"/>
<path d="M19.1661 340.414H58.3035V330.722H19.1661V340.414Z" fill="#455A64"/>
<path d="M330.431 168.267C328.525 168.978 272.157 170.14 270.032 168.791C269.778 168.651 268.861 149.416 268.861 149.416C268.934 149.144 267.953 147.29 266.555 144.734C262.533 137.495 254.671 124.535 254.671 124.535L288.135 114.103L301.88 142.496L305.384 149.744C305.384 149.744 313.064 152.843 319.773 155.934C322.703 157.186 325.558 158.615 328.325 160.213C330.504 161.927 332.338 167.574 330.431 168.267Z" fill="#D3766A"/>
<path d="M330.432 168.267C328.525 168.978 272.157 170.14 270.032 168.791C269.778 168.651 268.861 149.416 268.861 149.416C268.934 149.144 267.953 147.29 266.555 144.734L301.88 142.496L305.384 149.744C305.384 149.744 313.064 152.843 319.773 155.934C322.703 157.186 325.558 158.615 328.325 160.213C330.504 161.927 332.338 167.574 330.432 168.267Z" fill="white"/>
<path d="M330.668 168.482C328.707 169.203 272.257 170.196 270.078 168.838C269.252 168.323 268.262 159.361 268.861 149.416L305.257 148.817C305.257 148.817 326.337 158.425 328.571 160.185C330.804 161.946 332.629 167.77 330.668 168.482Z" fill="#EF233C"/>
<path opacity="0.1" d="M284.849 169.493C276.814 169.493 270.768 169.259 270.078 168.838C269.252 168.323 268.262 159.361 268.861 149.416H269.769L284.849 169.493Z" fill="black"/>
<path d="M329.823 166.16C320.364 166.085 282.17 166.721 272.81 167.386C272.738 167.386 272.738 167.452 272.81 167.452C282.188 167.733 320.373 166.787 329.832 166.319C330.023 166.319 330.023 166.16 329.823 166.16Z" fill="#495057"/>
<path d="M324.902 158.162C323.85 158.15 322.806 158.364 321.839 158.791C320.871 159.219 320 159.85 319.283 160.644C317.976 162.057 317.247 163.935 317.249 165.888C317.249 165.944 317.358 165.944 317.367 165.888C317.653 163.949 318.543 162.158 319.902 160.786C321.261 159.415 323.016 158.536 324.902 158.284C324.975 158.275 324.975 158.162 324.902 158.162Z" fill="#495057"/>
<path d="M308.244 149.744C304.458 149.744 300.073 151.214 297.785 154.426C297.695 154.548 297.876 154.679 297.985 154.613C301.268 152.78 304.732 151.314 308.316 150.24C308.38 150.23 308.438 150.194 308.476 150.141C308.514 150.087 308.53 150.02 308.521 149.954C308.511 149.889 308.476 149.829 308.425 149.79C308.373 149.75 308.308 149.734 308.244 149.744Z" fill="#495057"/>
<path d="M311.185 150.867C307.4 150.867 303.015 152.338 300.727 155.55C300.645 155.671 300.818 155.803 300.927 155.737C304.208 153.888 307.671 152.406 311.258 151.317C311.299 151.292 311.333 151.255 311.353 151.21C311.373 151.165 311.38 151.115 311.372 151.066C311.364 151.017 311.342 150.972 311.309 150.937C311.275 150.901 311.232 150.877 311.185 150.867Z" fill="#495057"/>
<path d="M314.126 151.991C310.34 151.991 305.956 153.461 303.677 156.673C303.586 156.795 303.759 156.926 303.868 156.861C307.151 155.01 310.618 153.528 314.208 152.441C314.249 152.415 314.283 152.377 314.302 152.332C314.322 152.286 314.328 152.236 314.319 152.186C314.31 152.137 314.287 152.092 314.253 152.057C314.218 152.023 314.174 151.999 314.126 151.991Z" fill="#495057"/>
<path d="M317.113 153.115C313.319 153.115 308.943 154.585 306.655 157.797C306.564 157.919 306.737 158.05 306.846 157.984C310.107 156.148 313.549 154.676 317.113 153.592C317.167 153.581 317.215 153.552 317.25 153.508C317.284 153.464 317.303 153.41 317.303 153.354C317.303 153.297 317.284 153.243 317.25 153.199C317.215 153.156 317.167 153.126 317.113 153.115Z" fill="#495057"/>
<path d="M275.052 158.087C270.804 158.172 270.931 164.98 275.188 164.895C279.446 164.811 279.31 157.994 275.052 158.087Z" fill="#495057"/>
<path d="M312.165 139.246C310.222 137.645 307.826 139.246 306.673 141.007C304.751 144.008 303.624 147.475 303.404 151.064C303.404 151.139 303.459 151.177 303.522 151.167C303.537 151.241 303.568 151.31 303.614 151.369C303.659 151.428 303.718 151.474 303.785 151.505C303.852 151.535 303.925 151.548 303.997 151.543C304.07 151.538 304.141 151.515 304.203 151.476C306.872 149.5 309.959 147.73 311.956 144.977C313.118 143.367 313.999 140.763 312.165 139.246ZM307.626 147.674C306.337 148.686 305.011 149.613 303.758 150.662C304.344 148.686 305.026 146.742 305.801 144.837C306.191 143.922 306.637 143.034 307.136 142.177C307.944 140.876 311.602 137.495 312.047 141.784C312.328 144.078 309.187 146.438 307.653 147.627L307.626 147.674Z" fill="#495057"/>
<path d="M294.018 152.675C297.322 153.143 300.709 152.113 303.94 151.532C304.01 151.513 304.074 151.477 304.128 151.427C304.181 151.378 304.223 151.316 304.25 151.247C304.276 151.178 304.286 151.103 304.28 151.029C304.274 150.955 304.251 150.884 304.213 150.82C304.224 150.81 304.234 150.797 304.24 150.782C304.246 150.768 304.25 150.752 304.25 150.736C304.25 150.72 304.246 150.704 304.24 150.69C304.234 150.675 304.224 150.662 304.213 150.652C301.582 148.285 298.395 146.67 294.971 145.97C292.965 145.614 290.159 146.213 289.905 148.779C289.651 151.345 292.084 152.403 294.018 152.675ZM291.694 150.493C289.07 147.187 293.945 146.831 295.407 147.159C296.352 147.381 297.281 147.675 298.185 148.039C300.042 148.805 301.86 149.668 303.632 150.624C302.025 150.811 300.454 151.13 298.857 151.373C296.968 151.663 293.137 152.319 291.694 150.493Z" fill="#495057"/>
<path d="M264.004 144.34L303.704 138.132C303.704 138.132 284.639 98.9038 272.837 77.6184C266.273 65.7817 248.325 65.2011 239.565 79.3883C227.871 98.3326 218.811 116.078 213.618 125.892L204.612 126.688L206.555 141.859L236.514 148.77C247.98 150.193 256.024 129.104 256.215 129.498C257.622 132.288 264.004 144.34 264.004 144.34Z" fill="#37474F"/>
<path d="M256.387 129.638C255.253 127.25 254.372 124.722 253.373 122.278L250.459 115.189C248.516 110.404 246.501 105.637 244.613 100.833C243.55 98.1361 242.579 95.4017 241.589 92.6766C241.589 92.611 241.462 92.6766 241.48 92.6766C242.252 95.2518 243.051 97.8271 243.886 100.374C243.659 99.9341 243.441 99.4939 243.205 99.0632C242.57 97.8926 241.916 96.7314 241.253 95.5702H241.19C241.798 96.7408 242.406 97.902 243.006 99.0538C243.314 99.6344 243.659 100.196 243.995 100.768C246.307 107.935 249.057 114.945 252.229 121.753C253.491 124.422 254.953 126.979 256.233 129.648C256.287 129.779 256.424 129.704 256.387 129.638Z" fill="#495057"/>
<path d="M264.894 137.055C262.978 134.011 258.421 124.797 256.787 121.603C253.491 115.161 250.432 108.577 247.608 101.938C245.992 98.1922 244.485 94.3715 242.987 90.5508C242.987 90.5508 242.942 90.5508 242.987 90.5508C245.269 97.4244 247.884 104.175 250.822 110.778C253.727 117.399 263.124 135.229 264.812 137.158C264.839 137.205 264.948 137.13 264.894 137.055Z" fill="#495057"/>
<path d="M240.255 95.6169C236.832 101.919 233.337 108.175 229.905 114.468C228.171 117.642 226.428 120.826 224.712 124.01C223.904 125.518 223.124 127.035 222.279 128.514C221.562 129.916 220.477 131.082 219.147 131.876C217.556 132.655 215.888 133.255 214.172 133.665C212.238 134.245 210.323 134.873 208.38 135.425C208.289 135.425 208.335 135.585 208.38 135.566C210.105 135.088 211.848 134.629 213.591 134.236C215.19 133.885 216.769 133.444 218.321 132.916C219.698 132.448 220.915 131.58 221.825 130.415C222.759 129.082 223.582 127.669 224.286 126.192C227.748 119.749 231.152 113.26 234.499 106.723C236.424 103.024 238.321 99.3159 240.255 95.6356C240.291 95.6169 240.264 95.5982 240.255 95.6169Z" fill="#495057"/>
<path d="M263.105 138.591C265.484 138.141 267.917 137.935 270.314 137.654L277.531 136.718C282.324 136.072 298.657 133.384 299.891 132.972C299.907 132.966 299.921 132.955 299.931 132.941C299.941 132.927 299.946 132.91 299.946 132.892C299.946 132.875 299.941 132.858 299.931 132.844C299.921 132.829 299.907 132.818 299.891 132.813C298.72 132.813 288.026 134.246 285.629 134.611C280.836 135.341 276.069 136.212 271.285 137.045C269.923 137.28 268.561 137.551 267.2 137.804C265.838 138.057 264.476 138.357 263.114 138.534C263.11 138.52 263.102 138.508 263.09 138.499C263.078 138.491 263.064 138.487 263.05 138.487C263.035 138.488 263.022 138.494 263.011 138.504C263 138.514 262.993 138.527 262.991 138.542C262.988 138.557 262.991 138.572 262.998 138.585C263.005 138.598 263.016 138.608 263.029 138.613C263.042 138.619 263.057 138.62 263.071 138.616C263.085 138.612 263.097 138.603 263.105 138.591Z" fill="#495057"/>
<path d="M286.909 181.143C286.273 179.167 252.247 132.785 249.923 131.895C249.651 131.773 234.444 142.945 234.444 142.945C233.818 143.807 204.903 137.504 204.903 137.504L204.612 173.483L257.268 172.331C257.268 172.331 264.376 176.639 270.885 180.16C273.652 181.763 276.511 183.193 279.446 184.439C282.125 185.104 287.553 183.081 286.909 181.143Z" fill="#D3766A"/>
<path d="M279.492 184.402C276.553 183.164 273.694 181.734 270.931 180.122C264.43 176.61 257.313 172.284 257.313 172.284L245.593 172.546L227.236 141.999C231.258 142.739 234.263 143.179 234.499 142.936C234.499 142.936 249.705 131.773 249.977 131.895C252.302 132.785 286.291 179.158 286.963 181.143C287.635 183.128 282.124 185.104 279.492 184.402Z" fill="white"/>
<path d="M287.218 181.143C286.546 179.111 252.365 132.766 249.996 131.839C249.088 131.492 241.653 136.231 234.462 142.879L256.532 172.733C256.532 172.733 276.895 183.858 279.619 184.579C282.342 185.3 287.889 183.203 287.218 181.143Z" fill="#EF233C"/>
<path d="M284.93 181.911C279.011 174.288 255.879 142.964 250.568 134.967C250.568 134.901 250.568 134.864 250.622 134.967C256.641 142.393 279.556 173.904 285.057 181.855C285.166 181.986 285.057 182.079 284.93 181.911Z" fill="#495057"/>
<path d="M275.788 182.894C275.127 182.048 274.644 181.068 274.371 180.019C274.097 178.969 274.039 177.872 274.199 176.798C274.462 174.867 275.438 173.115 276.923 171.909C276.968 171.909 277.032 171.956 276.986 172.003C275.691 173.438 274.881 175.268 274.678 177.218C274.475 179.168 274.89 181.133 275.861 182.819C275.865 182.83 275.867 182.841 275.865 182.853C275.863 182.864 275.858 182.875 275.85 182.883C275.842 182.891 275.832 182.897 275.821 182.899C275.81 182.901 275.798 182.899 275.788 182.894Z" fill="#495057"/>
<path d="M259.065 174.588C256.732 171.507 255.135 167.096 256.179 163.2C256.179 163.05 256.424 163.116 256.451 163.2C257.071 167.003 258.084 170.727 259.474 174.307C259.51 174.362 259.523 174.431 259.51 174.497C259.498 174.563 259.46 174.62 259.406 174.658C259.352 174.695 259.285 174.709 259.222 174.695C259.158 174.682 259.102 174.643 259.065 174.588Z" fill="#495057"/>
<path d="M261.734 176.292C259.401 173.221 257.803 168.8 258.847 164.905C258.847 164.755 259.093 164.821 259.111 164.952C259.738 168.754 260.755 172.477 262.143 176.058C262.163 176.113 262.164 176.173 262.144 176.228C262.125 176.283 262.087 176.329 262.037 176.358C261.987 176.386 261.93 176.395 261.874 176.383C261.818 176.371 261.769 176.339 261.734 176.292Z" fill="#495057"/>
<path d="M264.458 177.977C262.125 174.906 260.527 170.486 261.571 166.6C261.571 166.45 261.816 166.506 261.834 166.6C262.462 170.402 263.478 174.125 264.867 177.706C264.902 177.762 264.913 177.83 264.9 177.895C264.886 177.96 264.848 178.016 264.794 178.052C264.74 178.088 264.674 178.101 264.611 178.087C264.548 178.073 264.493 178.033 264.458 177.977Z" fill="#495057"/>
<path d="M267.1 179.672C264.766 176.592 263.169 172.181 264.213 168.285C264.213 168.135 264.458 168.201 264.476 168.285C265.103 172.087 266.12 175.81 267.508 179.392C267.544 179.447 267.557 179.516 267.545 179.582C267.532 179.648 267.494 179.705 267.44 179.743C267.386 179.78 267.32 179.793 267.256 179.78C267.192 179.767 267.136 179.728 267.1 179.672Z" fill="#495057"/>
<path d="M244.875 142.552C242.315 139.059 247.599 134.948 250.141 138.45C252.683 141.952 247.445 146.054 244.875 142.552Z" fill="#495057"/>
<path d="M257.74 180.562C258.602 177.238 258.03 173.642 257.885 170.261C257.876 170.183 257.848 170.108 257.804 170.044C257.76 169.98 257.701 169.928 257.633 169.892C257.564 169.857 257.489 169.84 257.412 169.842C257.336 169.844 257.261 169.866 257.195 169.905C257.187 169.892 257.176 169.881 257.162 169.873C257.149 169.865 257.134 169.861 257.118 169.861C257.103 169.861 257.087 169.865 257.074 169.873C257.06 169.881 257.049 169.892 257.041 169.905C254.439 172.301 252.497 175.364 251.412 178.783C250.813 180.778 251.04 183.737 253.464 184.317C255.888 184.898 257.195 182.501 257.74 180.562ZM255.38 182.669C251.875 184.926 252.139 179.86 252.656 178.446C253 177.509 253.4 176.596 253.854 175.711C254.826 173.906 255.887 172.152 257.032 170.458C257.032 172.115 257.114 173.773 257.15 175.43C257.132 177.397 257.277 181.414 255.38 182.669Z" fill="#495057"/>
<path d="M247.009 160.335C245.194 162.124 246.501 164.774 248.017 166.169C250.655 168.518 253.845 170.111 257.268 170.786C257.283 170.789 257.299 170.788 257.314 170.784C257.329 170.779 257.343 170.771 257.354 170.76C257.366 170.749 257.375 170.736 257.38 170.721C257.386 170.706 257.388 170.689 257.386 170.673C257.459 170.666 257.529 170.642 257.59 170.601C257.652 170.561 257.704 170.506 257.741 170.441C257.778 170.376 257.8 170.303 257.804 170.228C257.809 170.153 257.796 170.078 257.767 170.009C256.206 167.031 254.889 163.65 252.493 161.262C251.095 159.867 248.698 158.668 247.009 160.335ZM254.508 166.001C255.307 167.443 256.033 168.913 256.887 170.327C255.071 169.391 253.255 168.604 251.539 167.518C250.707 167.002 249.909 166.43 249.152 165.804C247.999 164.821 245.257 160.653 249.397 160.728C251.676 160.775 253.564 164.287 254.472 166.001H254.508Z" fill="#495057"/>
<path d="M220.019 129.151C220.019 129.151 162.307 118.7 145.893 122.147C122.997 126.932 118.784 154.866 135.77 165.223C157.332 178.446 243.941 175.889 243.941 175.889L223.242 139.714C223.242 139.714 191.403 132.794 162.534 133.796L220.273 142.898L220.019 129.151Z" fill="#37474F"/>
<path d="M224.622 142.046C224.598 141.986 224.583 141.923 224.576 141.859C224.576 141.812 224.576 141.756 224.576 141.709C224.576 141.662 224.513 141.475 224.486 141.353C224.416 141.115 224.334 140.88 224.241 140.651C224.155 140.415 224.058 140.183 223.95 139.958C223.84 139.735 223.713 139.522 223.569 139.321H223.514H223.46H223.405C219.91 138.647 196.115 135.144 192.584 134.723C189.052 134.302 185.439 133.964 181.862 133.655C174.723 133.016 167.557 132.75 160.391 132.859L158.376 132.916C158.24 132.916 158.085 132.841 157.94 132.803C157.595 132.719 157.25 132.635 156.905 132.569C156.261 132.438 155.607 132.344 154.962 132.241C153.601 132.026 152.239 131.876 150.895 131.614C150.878 131.614 150.862 131.621 150.85 131.633C150.838 131.646 150.832 131.662 150.832 131.68C150.832 131.697 150.838 131.714 150.85 131.726C150.862 131.738 150.878 131.745 150.895 131.745C152.248 132.054 153.619 132.457 154.935 132.766L156.106 133.019C153.483 133.169 150.868 133.375 148.244 133.618C148.163 133.618 148.163 133.758 148.244 133.749C151.812 133.534 155.398 133.506 158.975 133.571C162.552 133.637 166.065 133.712 169.606 133.927C176.769 134.348 183.923 135.013 191.059 135.8C195.062 136.231 219.32 139.883 223.342 140.051C223.342 140.145 223.405 140.239 223.451 140.332C223.496 140.426 223.678 140.782 223.796 140.997C223.914 141.213 224.023 141.419 224.15 141.625L224.349 141.924L224.449 142.074C224.493 142.122 224.529 142.175 224.558 142.233C224.513 142.187 224.667 142.13 224.622 142.046Z" fill="#495057"/>
<path d="M236.469 173.651C235.189 171.544 234.1 169.287 232.929 167.096L229.388 160.541C227.037 156.177 218.585 141.522 217.749 140.492C217.695 140.426 217.586 140.492 217.613 140.576C218.013 141.718 223.287 151.42 224.504 153.583C226.928 157.909 229.479 162.152 231.994 166.431C232.72 167.649 233.464 168.847 234.191 170.065C234.917 171.282 235.688 172.471 236.36 173.717C236.397 173.838 236.515 173.764 236.469 173.651Z" fill="#495057"/>
<path d="M217.513 144.191C215.398 143.666 213.237 143.329 211.095 142.908L204.676 141.662C200.397 140.844 196.109 140.061 191.812 139.312C183.242 137.823 174.644 136.596 165.993 135.735C161.117 135.257 156.224 134.939 151.331 134.564C151.231 134.564 151.231 134.733 151.331 134.733C160.046 135.135 168.743 136.353 177.368 137.636C185.992 138.918 194.426 140.286 202.942 141.765L210.141 143.039C212.583 143.479 215.016 143.975 217.477 144.331C217.567 144.35 217.604 144.209 217.513 144.191Z" fill="#495057"/>
<path d="M210.341 73.3388C212.011 84.0798 220.872 117.436 230.314 120.995C236.478 123.326 268.661 121.407 273.89 115.769C276.187 113.306 273.409 92.3112 269.878 92.5734C266.346 92.8356 241.308 97.1995 238.884 96.0851C236.46 94.9707 225.021 73.0953 218.82 64.892C209.27 52.2593 209.079 64.892 210.341 73.3388Z" fill="#D3766A"/>
<path d="M214.09 93.4162L231.775 82.7595C231.775 82.7595 224.513 70.9508 218.702 63.9649C212.892 56.979 207.89 55.3402 209.351 69.7054C210.107 77.7607 211.695 85.7096 214.09 93.4162Z" fill="#495057"/>
<path d="M224.34 128.702C223.387 129.507 169.951 123.86 169.724 123.476C169.107 122.437 180.237 88.4437 187.436 75.8391C196.66 59.676 200.854 58.6552 203.369 57.9529C206.583 57.0164 211.848 57.7656 214.263 59.5636C215.607 60.5562 219.22 68.7127 220.445 75.1554C222.915 88.0691 225.166 127.962 224.34 128.702Z" fill="#EF233C"/>
<path d="M212.938 67.2333C209.887 67.9918 204.631 63.2065 202.552 59.3203C202.407 59.0487 202.797 56.23 203.106 52.7651C203.287 50.6769 203.441 48.3357 203.432 46.21C203.432 45.7699 216.46 49.4126 216.46 49.4126C215.728 52.0916 215.317 54.8527 215.234 57.6347C215.241 57.9302 215.271 58.2246 215.325 58.5149C215.331 58.5616 215.331 58.6087 215.325 58.6554C215.616 60.341 215.879 66.4935 212.938 67.2333Z" fill="#D3766A"/>
<path d="M204.231 46.2942C204.849 49.9089 207.064 58.6366 214.009 58.7677C214.455 58.7778 214.901 58.7527 215.344 58.6928C215.35 58.643 215.35 58.5927 215.344 58.5429C215.286 58.253 215.252 57.9585 215.244 57.6627C215.326 54.8801 215.741 52.1185 216.478 49.4407C216.478 49.4407 207.055 46.7905 204.231 46.2942Z" fill="#495057"/>
<path d="M204.122 28.5018C201.835 32.8843 201.608 46.8562 204.24 50.527C208.053 55.8554 215.616 57.8501 220.327 52.8026C224.867 47.9237 224.867 29.7004 221.816 26.2262C217.304 21.0851 207.5 22.0028 204.122 28.5018Z" fill="#D3766A"/>
<path d="M214.408 40.9661C214.408 40.9661 214.335 40.9661 214.335 41.0503C214.335 41.9868 214.199 43.0731 213.373 43.3634V43.4196C214.39 43.2978 214.526 41.8557 214.408 40.9661Z" fill="#495057"/>
<path d="M213.618 39.9639C212.157 39.814 211.975 42.8481 213.337 42.9886C214.699 43.1291 214.844 40.095 213.618 39.9639Z" fill="#495057"/>
<path d="M219.501 41.3123C219.501 41.3123 219.574 41.3684 219.574 41.4059C219.483 42.3423 219.574 43.4286 220.346 43.7938V43.85C219.338 43.6346 219.283 42.1925 219.501 41.3123Z" fill="#495057"/>
<path d="M220.373 40.3853C221.853 40.3853 221.78 43.4006 220.418 43.4193C219.057 43.4381 219.147 40.404 220.373 40.3853Z" fill="#495057"/>
<path d="M212.402 37.4822C212.804 37.4663 213.204 37.4225 213.6 37.3511C214.031 37.3702 214.455 37.2418 214.808 36.9859C214.903 36.8841 214.963 36.7525 214.978 36.6117C214.993 36.4709 214.961 36.3291 214.889 36.2086C214.712 35.9898 214.482 35.8239 214.222 35.7283C213.961 35.6328 213.681 35.6111 213.41 35.6655C212.848 35.6907 212.315 35.9272 211.912 36.3304C211.827 36.4295 211.771 36.5516 211.751 36.6823C211.731 36.813 211.748 36.9468 211.8 37.0679C211.851 37.189 211.935 37.2924 212.042 37.3658C212.149 37.4392 212.274 37.4796 212.402 37.4822Z" fill="#495057"/>
<path d="M221.853 38.2593C221.464 38.1508 221.082 38.0195 220.709 37.866C220.285 37.7933 219.898 37.5756 219.61 37.248C219.536 37.1265 219.503 36.9828 219.518 36.84C219.533 36.6972 219.594 36.5637 219.692 36.4613C219.91 36.288 220.169 36.1782 220.442 36.1436C220.715 36.109 220.992 36.1508 221.244 36.2647C221.782 36.3997 222.253 36.7327 222.57 37.2011C222.645 37.3172 222.684 37.4538 222.683 37.5933C222.681 37.7328 222.639 37.8686 222.562 37.983C222.484 38.0973 222.375 38.1848 222.248 38.2341C222.122 38.2835 221.984 38.2922 221.853 38.2593Z" fill="#495057"/>
<path d="M213.491 46.8467C213.699 47.2342 213.984 47.5727 214.326 47.8404C214.668 48.108 215.061 48.2991 215.479 48.4012C215.843 48.5033 216.22 48.5444 216.596 48.5229C216.665 48.5325 216.735 48.5325 216.805 48.5229H217.004C217.054 48.5174 217.1 48.4951 217.136 48.4595C217.173 48.424 217.196 48.3771 217.204 48.3263V48.1671V48.0828C217.268 47.3617 217.268 46.2099 217.268 46.2099C217.513 46.3597 218.784 47.0527 218.784 46.6688C218.892 43.4245 218.682 40.1772 218.157 36.9765C218.151 36.9578 218.14 36.9415 218.124 36.9299C218.109 36.9183 218.09 36.9121 218.071 36.9121C218.052 36.9121 218.033 36.9183 218.018 36.9299C218.002 36.9415 217.991 36.9578 217.985 36.9765C217.867 40.0012 218.266 43.0166 218.194 46.0507C217.739 45.7993 217.253 45.6134 216.75 45.4982C216.65 45.4982 216.795 47.6333 216.75 47.9611C216.177 47.989 215.605 47.8982 215.067 47.6939C214.529 47.4896 214.036 47.176 213.618 46.7718C213.518 46.7156 213.445 46.7718 213.491 46.8467Z" fill="#495057"/>
<path d="M216.197 48.167C215.783 48.6617 215.251 49.0362 214.653 49.2533C214.325 49.3609 213.973 49.3609 213.646 49.2533C212.928 49.0098 212.956 48.3168 213.119 47.7362C213.216 47.4297 213.343 47.1346 213.5 46.856C214.242 47.5764 215.186 48.0354 216.197 48.167Z" fill="#495057"/>
<path d="M214.653 49.216C214.325 49.3236 213.973 49.3236 213.646 49.216C212.928 48.9725 212.956 48.2796 213.119 47.699C213.504 47.734 213.866 47.9034 214.145 48.1792C214.424 48.455 214.603 48.8208 214.653 49.216Z" fill="#FF98B9"/>
<path d="M202.869 41.0127C205.684 41.8461 208.543 29.3445 208.543 29.3445C209.979 30.6263 211.595 31.6747 213.337 32.4535C215.144 33.1118 217.017 33.561 218.92 33.7926C219.347 33.7926 215.007 30.384 215.007 30.384C217.682 31.5459 220.557 32.1384 223.459 32.1258C225.629 31.9947 225.511 31.0395 225.602 30.3091C225.693 29.5786 222.924 22.0308 214.145 21.16C212.37 21.0284 210.592 21.3521 208.968 22.1021C207.344 22.8521 205.926 24.0051 204.839 25.4582C204.839 25.4582 200.799 28.2676 200.382 30.3465C199.81 33.1184 199.901 40.1324 202.869 41.0127Z" fill="#495057"/>
<path d="M218.993 41.7525C219.138 39.6174 220.373 38.0067 221.716 38.0722C223.06 38.1378 224.077 39.9451 223.932 42.1177C223.786 44.2903 222.552 45.8635 221.208 45.7886C219.864 45.7137 218.848 43.8782 218.993 41.7525ZM219.492 41.7525C219.365 43.6254 220.146 45.1612 221.235 45.2361C222.325 45.311 223.314 43.8782 223.441 42.0428C223.568 40.2073 222.788 38.6341 221.698 38.5498C220.609 38.4656 219.628 39.9451 219.492 41.7899V41.7525Z" fill="#455A64"/>
<path d="M209.587 41.0595C209.681 40.3593 209.972 39.7027 210.423 39.1706C210.874 38.6385 211.466 38.254 212.126 38.0646C212.786 37.8752 213.486 37.8891 214.139 38.1046C214.791 38.3201 215.369 38.7278 215.799 39.2774C216.23 39.8271 216.496 40.4947 216.564 41.1981C216.631 41.9015 216.498 42.61 216.181 43.2363C215.863 43.8626 215.374 44.3794 214.776 44.7231C214.177 45.0668 213.494 45.2223 212.81 45.1705C211.855 45.0643 210.98 44.5721 210.376 43.8016C209.772 43.0311 209.488 42.0451 209.587 41.0595ZM210.087 41.0595C210.092 41.6618 210.267 42.2495 210.59 42.7508C210.914 43.2522 211.372 43.6453 211.909 43.8823C212.446 44.1193 213.038 44.1897 213.613 44.0851C214.188 43.9805 214.721 43.7054 215.147 43.2933C215.573 42.8812 215.873 42.3501 216.011 41.7648C216.149 41.1795 216.119 40.5655 215.924 39.9977C215.729 39.4299 215.378 38.9331 214.914 38.5678C214.449 38.2026 213.892 37.9848 213.309 37.9411C212.478 37.9185 211.671 38.237 211.067 38.8269C210.463 39.4168 210.11 40.2298 210.087 41.0876V41.0595Z" fill="#455A64"/>
<path d="M216.432 41.2094C218.348 40.6663 219.156 41.3686 219.156 41.3686L219.492 40.9847C219.492 40.9847 218.502 40.0482 216.287 40.7131L216.432 41.2094Z" fill="#455A64"/>
<path d="M209.86 40.7318L209.987 40.2355C209.669 40.1512 202.125 38.1285 201.299 38.0255C200.473 37.9225 198.303 38.9619 198.067 39.0556L198.285 39.5238C199.198 39.032 200.182 38.6967 201.199 38.5312C201.871 38.6248 207.154 40.0108 209.86 40.7318Z" fill="#455A64"/>
<path d="M204.785 40.0387C204.785 40.0387 202.579 35.113 200.464 35.8528C198.348 36.5926 199.474 43.3444 201.58 44.6273C201.84 44.811 202.133 44.9388 202.442 45.003C202.751 45.0672 203.069 45.0665 203.377 45.0009C203.686 44.9354 203.978 44.8063 204.237 44.6214C204.496 44.4365 204.717 44.1997 204.885 43.925L204.785 40.0387Z" fill="#D3766A"/>
<path d="M200.827 37.7725C200.827 37.7725 200.827 37.7725 200.827 37.838C202.297 38.7745 202.869 40.4601 203.178 42.1457C203.114 41.9677 203.014 41.8058 202.884 41.6711C202.755 41.5363 202.599 41.4316 202.427 41.3642C202.255 41.2968 202.071 41.2681 201.887 41.2802C201.704 41.2922 201.525 41.3446 201.362 41.434C201.308 41.434 201.362 41.5276 201.362 41.5276C201.656 41.4886 201.954 41.5441 202.215 41.6866C202.477 41.8291 202.69 42.0516 202.824 42.3236C203.047 42.7833 203.221 43.2669 203.341 43.7657C203.396 43.9249 203.659 43.8875 203.641 43.7095C204.022 41.6119 202.96 38.3905 200.827 37.7725Z" fill="#495057"/>
<path d="M235.77 108.943C235.77 112.398 226.273 111.527 223.904 111.827C221.534 112.127 221.18 112.763 222.379 113.475C222.626 113.595 222.885 113.69 223.15 113.756C219.465 112.969 207.281 108.587 207.281 108.587C207.281 108.587 214.599 106.086 218.475 105.281C222.352 104.476 235.779 105.468 235.77 108.943Z" fill="#D3766A"/>
<path d="M258.548 91.1689C260.447 89.3974 262.53 87.8461 264.757 86.5428C267.717 84.9789 274.317 82.1696 275.443 81.3174L277.494 80.8398L270.813 127.147L253.237 135.257L221.371 131.848L225.847 88.1348L227.926 87.6197C227.926 87.6197 231.993 88.219 235.307 88.3689C238.62 88.5187 249.778 87.0391 258.548 91.1689Z" fill="white"/>
<path d="M250.695 136.821L256.178 92.3676L224.467 87.8914L219.746 133.103L250.695 136.821Z" fill="#EF233C"/>
<path opacity="0.1" d="M250.695 136.821L256.178 92.3676L224.467 87.8914L219.746 133.103L250.695 136.821Z" fill="black"/>
<path d="M250.695 136.821L255.135 136.305L260.664 91.8523L256.179 92.3673L250.695 136.821Z" fill="#EF233C"/>
<path d="M255.134 136.306L260.663 91.8526L278.33 80.2969L271.403 127.475L255.134 136.306Z" fill="#EF233C"/>
<path opacity="0.1" d="M255.134 136.306L260.663 91.8526L278.33 80.2969L271.403 127.475L255.134 136.306Z" fill="black"/>
<path d="M188.507 69.2093C181.816 76.935 160.3 109.177 163.178 119.075C165.066 125.565 200.146 134.601 207.663 135.575C210.949 135.997 215.261 112.698 212.946 109.945C210.631 107.192 189.496 107.135 188.915 104.429C188.334 101.723 199.283 77.4594 201.081 68.3571C204.231 52.5124 192.737 64.3023 188.507 69.2093Z" fill="#D3766A"/>
<path d="M243.042 122.662C242.888 125.715 238.294 126.735 237.976 126.791C238.258 126.791 242.343 126.342 241.98 129.376C241.617 132.41 237.577 134.133 237.577 134.133C237.577 134.133 238.93 134.854 237.704 136.943C235.934 139.939 228.625 140.848 224.731 140.398C220.836 139.949 206.792 135.304 204.658 134.545L207.264 108.587C207.264 108.587 219.447 112.969 223.133 113.756H223.187C225.734 114.372 228.314 114.829 230.913 115.123C235.044 115.423 240.727 112.314 241.417 115.404C242.043 118.167 237.895 119.927 237.895 119.927C237.895 119.927 243.206 119.506 243.042 122.662Z" fill="#D3766A"/>
<path d="M237.686 119.918C231.748 121.959 228.807 121.791 222.833 120.264C222.812 120.263 222.79 120.269 222.772 120.281C222.754 120.294 222.74 120.312 222.733 120.333C222.725 120.354 222.725 120.377 222.732 120.399C222.739 120.42 222.752 120.439 222.77 120.451C228.489 122.493 232.148 123.261 237.795 120.208C238.067 120.058 237.967 119.824 237.686 119.918Z" fill="#495057"/>
<path d="M238.203 126.651C231.848 128.215 228.671 128.056 222.298 126.941C222.207 126.941 222.17 127.082 222.298 127.1C228.462 128.739 232.13 129.413 238.267 126.997C238.503 126.885 238.494 126.576 238.203 126.651Z" fill="#495057"/>
<path d="M237.495 134.096C231.249 135.154 227.744 135.135 221.689 133.234C221.663 133.232 221.636 133.239 221.614 133.254C221.592 133.269 221.575 133.291 221.567 133.317C221.558 133.343 221.559 133.371 221.568 133.397C221.577 133.423 221.594 133.444 221.616 133.459C227.599 136.015 231.966 136.072 237.504 134.292C237.876 134.18 237.885 134.03 237.495 134.096Z" fill="#495057"/>
<path d="M278.012 93.1636C280.001 96.0853 284.367 99.3816 285.066 101.929C285.268 102.548 285.272 103.217 285.075 103.838C284.879 104.459 284.494 104.998 283.977 105.375C283.977 105.375 286.7 106.227 287 108.652C287.154 109.898 285.357 111.246 285.357 111.246C285.965 111.473 286.5 111.868 286.904 112.388C287.308 112.909 287.564 113.535 287.645 114.196C287.754 115.919 285.938 117.006 285.938 117.006C285.938 117.006 287.672 118.738 287.227 120.536C286.319 124.188 272.129 126.688 269.07 121.678C267.636 119.337 271.14 118.925 271.14 118.925C271.14 118.925 265.956 118.27 265.384 115.264C264.812 112.258 269.388 111.996 269.388 111.996C269.388 111.996 264.376 111.312 264.086 108.128C263.795 104.944 268.407 105.365 268.407 105.365C268.407 105.365 264.885 103.717 265.203 101.226C265.729 97.1154 272.52 100.974 275.516 99.6532L276.36 94.0345L278.012 93.1636Z" fill="#D3766A"/>
<path d="M281.626 97.2744C279.973 94.3433 283.096 89.7828 281.907 86.7675C280.3 82.6471 276.333 87.6571 276.324 94.0437L277.168 99.0068L281.626 97.2744Z" fill="#D3766A"/>
<path d="M285.674 117.221C285.72 117.221 285.747 117.277 285.674 117.296C281.025 119.394 275.867 119.982 270.885 118.981C270.731 118.981 270.713 118.663 270.885 118.672C275.857 118.935 280.84 118.446 285.674 117.221Z" fill="#100E3A"/>
<path d="M285.429 111.265C285.484 111.265 285.511 111.34 285.429 111.368C280.278 113.625 274.514 113.907 269.179 112.164C268.997 112.098 268.897 111.845 269.115 111.902C272.81 112.913 280.917 112.473 285.429 111.265Z" fill="#100E3A"/>
<path d="M268.026 105.113C273.255 106.761 278.466 106.517 283.795 105.468C283.858 105.468 283.877 105.562 283.795 105.59C281.326 106.836 277.867 107.135 275.152 107.135C272.632 107.171 270.147 106.525 267.944 105.262C267.88 105.29 267.917 105.075 268.026 105.113Z" fill="#100E3A"/>
<path d="M176.061 83.0686L195.008 91.1689C195.008 91.1689 199.738 78.0586 201.599 69.0593C203.46 60.0601 201.699 54.9377 191.458 64.8547C185.714 70.345 180.552 76.4507 176.061 83.0686Z" fill="#495057"/>
<path d="M252.139 21.6938C251.485 25.8984 247.972 29.4101 247.972 29.4101C247.972 29.4101 243.142 28.586 240.292 25.4958C237.904 22.9299 237.84 19.3433 239.928 17.8824C242.924 15.7848 245.566 21.4503 245.566 21.4503C245.566 21.4503 244.613 15.2416 248.235 15.2042C250.759 15.1855 252.656 18.2008 252.139 21.6938Z" fill="#EF233C"/>
<path d="M235.77 39.7951C234.11 41.1452 232.116 41.9886 230.014 42.2299C228.629 40.5855 227.718 38.5745 227.382 36.4239C227.155 33.858 228.689 31.7885 230.514 31.9383C233.128 32.1443 232.148 36.6206 232.148 36.6206C232.148 36.6206 234.336 32.6594 236.397 34.3263C237.84 35.4687 237.613 38.0533 235.77 39.7951Z" fill="#EF233C"/>
<path d="M233.464 3.2175C232.894 4.37848 232.019 5.35161 230.941 6.02685C229.781 5.50097 228.787 4.65114 228.072 3.57336C227.309 2.23423 227.636 0.698459 228.662 0.295786C230.133 -0.275447 230.704 2.40279 230.704 2.40279C230.704 2.40279 230.913 -0.331637 232.448 0.0335782C233.519 0.277055 234.045 1.74728 233.464 3.2175Z" fill="#EF233C"/>
</svg>
